<svg xmlns="http://www.w3.org/2000/svg" xmlns:xlink="http://www.w3.org/1999/xlink" width="100" zoomAndPan="magnify" viewBox="0 0 75 74.999997" height="100" preserveAspectRatio="xMidYMid meet" version="1.0"><defs><clipPath id="016303ad26"><path d="M 14 32 L 62 32 L 62 73.476562 L 14 73.476562 Z M 14 32 " clip-rule="nonzero"/></clipPath><clipPath id="1942aed64b"><path d="M 55 25 L 74.140625 25 L 74.140625 49 L 55 49 Z M 55 25 " clip-rule="nonzero"/></clipPath><clipPath id="44d449b19e"><path d="M 0.640625 23 L 22 23 L 22 48 L 0.640625 48 Z M 0.640625 23 " clip-rule="nonzero"/></clipPath><clipPath id="6863ce9965"><path d="M 14 1.476562 L 37 1.476562 L 37 32 L 14 32 Z M 14 1.476562 " clip-rule="nonzero"/></clipPath><clipPath id="b969dcde8e"><path d="M 37 1.476562 L 60 1.476562 L 60 32 L 37 32 Z M 37 1.476562 " clip-rule="nonzero"/></clipPath><clipPath id="8b73042101"><path d="M 12 30 L 61 30 L 61 73.476562 L 12 73.476562 Z M 12 30 " clip-rule="nonzero"/></clipPath></defs><g clip-path="url(#016303ad26)"><path fill="#f5e6d3" d="M 48.960938 73.503906 C 55.710938 73.019531 67.621094 68.257812 57.605469 50.714844 C 48.121094 34.109375 40.042969 32.96875 40.042969 32.96875 C 38.375 32.386719 36.472656 32.96875 36.472656 32.96875 C 36.472656 32.96875 30.148438 33.6875 18.914062 50.714844 C 7.128906 68.578125 21.519531 72.554688 28.386719 73.355469 C 29.742188 73.511719 33.898438 73.191406 33.898438 73.191406 C 33.898438 73.191406 37.984375 72.183594 43.472656 73.191406 L 48.960938 73.503906 " fill-opacity="1" fill-rule="nonzero"/></g><path fill="#f5e6d3" d="M 15.84375 29.40625 C 15.84375 29.40625 27.351562 38.792969 17.964844 46.058594 C 8.578125 53.324219 1.917969 39.726562 2.824219 32.445312 C 3.734375 25.164062 7.925781 22.050781 15.84375 29.40625 " fill-opacity="1" fill-rule="nonzero"/><path fill="#f5e6d3" d="M 34.105469 11.785156 C 34.105469 11.785156 43.445312 26.941406 29.957031 31.484375 C 16.46875 36.023438 14.269531 18 18.164062 10.109375 C 22.054688 2.222656 28.027344 0.34375 34.105469 11.785156 " fill-opacity="1" fill-rule="nonzero"/><path fill="#f5e6d3" d="M 42.792969 11.785156 C 42.792969 11.785156 33.453125 26.941406 46.941406 31.484375 C 60.433594 36.023438 62.628906 18 58.738281 10.109375 C 54.847656 2.222656 48.875 0.34375 42.792969 11.785156 " fill-opacity="1" fill-rule="nonzero"/><g clip-path="url(#1942aed64b)"><path fill="#f5e6d3" d="M 61.25 29.40625 C 61.25 29.40625 49.746094 38.792969 59.132812 46.058594 C 68.515625 53.324219 75.179688 39.726562 74.269531 32.445312 C 73.363281 25.164062 69.171875 22.050781 61.25 29.40625 " fill-opacity="1" fill-rule="nonzero"/></g><g clip-path="url(#44d449b19e)"><path fill="#a8dadc" d="M 13.953125 28.519531 C 16.699219 30.765625 19.441406 34.277344 19.53125 37.953125 C 19.613281 41.183594 17.054688 43.765625 14.363281 45.164062 C 12.039062 46.378906 9.449219 46.082031 7.414062 44.460938 C 5.390625 42.847656 4.054688 40.441406 3.195312 38.039062 C 2.351562 35.679688 1.917969 33.113281 2.292969 30.621094 C 2.617188 28.46875 3.378906 25.445312 5.738281 24.6875 C 6.867188 24.324219 8.113281 24.65625 9.160156 25.117188 C 10.960938 25.910156 12.519531 27.199219 13.953125 28.519531 C 14.675781 29.183594 15.757812 28.105469 15.03125 27.4375 C 12.738281 25.324219 9.546875 22.65625 6.175781 23.050781 C 3.53125 23.359375 2.050781 25.671875 1.3125 28.019531 C -0.355469 33.324219 1.222656 39.445312 4.589844 43.757812 C 6.164062 45.773438 8.394531 47.285156 10.992188 47.460938 C 14.089844 47.667969 17.152344 45.625 19.0625 43.34375 C 20.933594 41.105469 21.472656 38.273438 20.675781 35.484375 C 20.011719 33.160156 18.558594 31.09375 16.957031 29.316406 C 16.359375 28.652344 15.722656 28.003906 15.03125 27.441406 C 14.277344 26.820312 13.191406 27.894531 13.953125 28.519531 " fill-opacity="1" fill-rule="nonzero"/></g><g clip-path="url(#6863ce9965)"><path fill="#a8dadc" d="M 32.09375 10.746094 C 33.585938 13.175781 34.613281 16.027344 35.019531 18.839844 C 35.332031 20.984375 35.109375 23.261719 34.023438 25.167969 C 32.601562 27.65625 29.832031 29.007812 27.15625 29.683594 C 16.039062 32.492188 14.082031 16.9375 17.214844 9.621094 C 18.316406 7.054688 20.460938 3.386719 23.578125 3.054688 C 25.078125 2.898438 26.457031 3.644531 27.566406 4.582031 C 29.523438 6.230469 30.898438 8.515625 32.09375 10.746094 C 32.5625 11.613281 33.878906 10.84375 33.414062 9.972656 C 31.808594 6.976562 29.691406 3.511719 26.449219 2.0625 C 24.132812 1.027344 21.800781 1.613281 19.890625 3.171875 C 17.820312 4.859375 16.339844 7.488281 15.453125 9.972656 C 14.65625 12.207031 14.347656 14.632812 14.324219 16.996094 C 14.28125 21.609375 15.488281 26.90625 19.316406 29.855469 C 23.582031 33.140625 30.5 31.277344 34 27.707031 C 38.636719 22.96875 36.496094 14.988281 33.414062 9.976562 C 32.898438 9.136719 31.578125 9.902344 32.09375 10.746094 " fill-opacity="1" fill-rule="nonzero"/></g><g clip-path="url(#b969dcde8e)"><path fill="#a8dadc" d="M 40.785156 9.972656 C 39.273438 12.433594 38.199219 15.332031 37.742188 18.171875 C 37.375 20.445312 37.449219 22.808594 38.363281 24.949219 C 39.4375 27.457031 41.589844 29.214844 44.050781 30.277344 C 46.578125 31.371094 49.464844 31.945312 52.167969 31.199219 C 54.355469 30.59375 56.101562 29.066406 57.324219 27.195312 C 59.972656 23.144531 60.296875 17.652344 59.515625 13.003906 C 59.175781 10.960938 58.488281 9.042969 57.484375 7.230469 C 56.371094 5.214844 54.847656 3.175781 52.742188 2.128906 C 47.296875 -0.578125 42.933594 5.964844 40.785156 9.972656 C 40.316406 10.84375 41.636719 11.613281 42.101562 10.746094 C 43.613281 7.925781 45.710938 4.230469 49 3.214844 C 51.359375 2.488281 53.382812 4.125 54.769531 5.859375 C 57.925781 9.800781 58.761719 15.078125 58.171875 19.980469 C 57.660156 24.277344 55.554688 29.132812 50.832031 29.929688 C 48.09375 30.394531 44.980469 29.324219 42.722656 27.835938 C 40.742188 26.53125 39.453125 24.445312 39.144531 22.09375 C 38.640625 18.257812 40.105469 13.996094 42.101562 10.746094 C 42.621094 9.902344 41.296875 9.136719 40.785156 9.972656 " fill-opacity="1" fill-rule="nonzero"/></g><path fill="#a8dadc" d="M 59.359375 27.4375 C 56.507812 29.773438 53.863281 33.308594 53.398438 37.03125 C 53.011719 40.15625 54.527344 42.894531 56.867188 44.871094 C 59.097656 46.757812 61.960938 47.972656 64.894531 47.226562 C 67.433594 46.578125 69.390625 44.539062 70.769531 42.410156 C 72.269531 40.085938 73.226562 37.339844 73.601562 34.605469 C 74.207031 30.199219 72.773438 22.199219 66.742188 23.085938 C 63.886719 23.507812 61.410156 25.550781 59.359375 27.4375 C 58.632812 28.105469 59.714844 29.183594 60.4375 28.519531 C 62.488281 26.632812 65.824219 23.671875 68.894531 24.769531 C 71.273438 25.621094 71.960938 29.140625 72.183594 31.292969 C 72.457031 33.898438 71.808594 36.585938 70.832031 38.988281 C 69.863281 41.378906 68.289062 43.765625 66.035156 45.101562 C 63.730469 46.46875 61.183594 45.964844 59.023438 44.582031 C 56.496094 42.964844 54.628906 40.425781 54.894531 37.339844 C 55.183594 33.925781 57.871094 30.621094 60.4375 28.519531 C 61.203125 27.894531 60.113281 26.820312 59.359375 27.4375 " fill-opacity="1" fill-rule="nonzero"/><path fill="#a8dadc" d="M 58.574219 52.546875 C 58.378906 52.117188 58.160156 51.703125 57.941406 51.289062 C 57.75 50.917969 57.242188 50.8125 56.898438 51.015625 C 56.523438 51.234375 56.429688 51.691406 56.621094 52.058594 C 56.839844 52.476562 57.0625 52.890625 57.253906 53.316406 C 57.425781 53.695312 57.96875 53.785156 58.300781 53.589844 C 58.6875 53.363281 58.746094 52.925781 58.574219 52.546875 " fill-opacity="1" fill-rule="nonzero"/><g clip-path="url(#8b73042101)"><path fill="#a8dadc" d="M 56.910156 49.359375 C 53.554688 43.503906 49.472656 37.644531 43.898438 33.691406 C 41.851562 32.238281 39.300781 30.90625 36.714844 30.980469 C 36.121094 30.996094 35.503906 31.09375 34.933594 31.253906 C 35.328125 31.140625 34.988281 31.242188 34.851562 31.269531 C 34.660156 31.304688 34.46875 31.363281 34.285156 31.429688 C 33.246094 31.785156 32.28125 32.34375 31.371094 32.953125 C 26.644531 36.121094 22.945312 40.824219 19.644531 45.378906 C 17.171875 48.792969 14.742188 52.332031 13.296875 56.324219 C 12.394531 58.8125 11.976562 61.570312 12.65625 64.167969 C 13.746094 68.351562 17.667969 70.761719 21.535156 72.003906 C 23.292969 72.570312 25.113281 72.914062 26.945312 73.136719 C 28.242188 73.292969 29.597656 73.164062 30.898438 73.089844 C 31.574219 73.054688 32.277344 73.054688 32.941406 72.914062 C 34.070312 72.675781 35.230469 72.589844 36.378906 72.550781 C 37.347656 72.515625 38.316406 72.546875 39.285156 72.613281 C 40.25 72.683594 41.207031 72.929688 42.167969 72.984375 C 43.980469 73.089844 45.792969 73.191406 47.605469 73.296875 C 48.386719 73.339844 49.269531 73.117188 50.035156 72.972656 C 50.972656 72.792969 51.894531 72.535156 52.789062 72.214844 C 54.664062 71.539062 56.417969 70.53125 57.84375 69.128906 C 61.722656 65.296875 61.265625 59.585938 59.523438 54.851562 C 59.1875 53.933594 57.710938 54.332031 58.050781 55.257812 C 59.167969 58.289062 59.863281 61.632812 58.820312 64.785156 C 58.089844 66.992188 56.390625 68.675781 54.410156 69.808594 C 52.585938 70.847656 50.476562 71.445312 48.398438 71.695312 C 46.539062 71.917969 44.574219 71.597656 42.710938 71.492188 C 41.21875 71.40625 39.75 71.09375 38.246094 71.027344 C 36.636719 70.957031 35.027344 71.054688 33.433594 71.285156 C 33.101562 71.332031 32.773438 71.390625 32.441406 71.460938 C 32.214844 71.511719 32.5625 71.457031 32.515625 71.457031 C 32.351562 71.46875 32.183594 71.484375 32.019531 71.492188 C 30.660156 71.585938 29.300781 71.667969 27.9375 71.660156 C 26.167969 71.652344 24.339844 71.226562 22.621094 70.738281 C 20.71875 70.195312 18.878906 69.410156 17.273438 68.234375 C 15.6875 67.070312 14.535156 65.425781 14.0625 63.511719 C 13.414062 60.863281 14.1875 58.003906 15.222656 55.5625 C 16.921875 51.5625 19.582031 47.949219 22.179688 44.503906 C 24.152344 41.886719 26.285156 39.375 28.660156 37.121094 C 29.996094 35.851562 31.421875 34.667969 33.003906 33.726562 C 33.453125 33.457031 33.917969 33.214844 34.398438 33.007812 C 34.199219 33.09375 34.625 32.921875 34.722656 32.890625 C 34.839844 32.851562 34.960938 32.816406 35.078125 32.78125 C 35.570312 32.652344 34.839844 32.867188 35.378906 32.714844 C 36.472656 32.40625 37.453125 32.539062 38.542969 32.742188 C 38.777344 32.785156 39.011719 32.855469 39.242188 32.925781 C 39.824219 33.117188 40.039062 33.21875 40.554688 33.46875 C 42.902344 34.605469 44.941406 36.308594 46.777344 38.132812 C 50.308594 41.640625 53.125 45.828125 55.59375 50.128906 C 56.082031 50.984375 57.402344 50.214844 56.910156 49.359375 " fill-opacity="1" fill-rule="nonzero"/></g></svg>